<svg xmlns="http://www.w3.org/2000/svg" width="184" height="120" viewBox="0 0 46 30"><g><g><path fill="red" d="M13.682 1.223L1.429 13.046a2.443 2.443 0 0 0 0 3.911l12.253 11.824c.08.08.08.08.245.08.081 0 .164-.08.164-.243 0-.082-.082-.163-.082-.244-6.644-7.708-6.644-19.119 0-26.827a.299.299 0 0 0 .082-.244c0-.163-.082-.244-.164-.244-.082.081-.164.081-.245.163"/></g><g><path fill="#005baa" d="M23.077.244c-4.82 0-6.7 6.765-6.7 14.84s1.88 14.758 6.7 14.758c2.854 0 5.31-1.713 5.31-3.099a1.046 1.046 0 0 0-.327-.815 5.152 5.152 0 0 1-1.879-3.75 3.855 3.855 0 0 1 3.676-3.832c2.45 0 3.84 1.876 3.84 4.403a10.347 10.347 0 0 1-2.043 5.87.285.285 0 0 1-.082.163c0 .163.082.245.164.245.083 0 .082 0 .245-.082l12.253-11.823c.604-.472.964-1.19.98-1.957a2.432 2.432 0 0 0-.98-1.956L31.98 1.386a.3.3 0 0 0-.245-.082c-.081 0-.164.082-.164.244a.283.283 0 0 0 .082.163 10.348 10.348 0 0 1 2.042 5.871c0 2.446-1.389 4.403-3.84 4.403a3.855 3.855 0 0 1-3.675-3.832 5.153 5.153 0 0 1 1.879-3.75c.21-.22.328-.512.326-.816 0-1.63-2.369-3.343-5.31-3.343"/></g></g></svg>